<?xml version="1.0" encoding="utf-8"?>
<!-- Generator: Adobe Illustrator 19.1.0, SVG Export Plug-In . SVG Version: 6.00 Build 0)  -->
<svg version="1.1" id="Capa_1" xmlns="http://www.w3.org/2000/svg" xmlns:xlink="http://www.w3.org/1999/xlink" x="0px" y="0px"
	 viewBox="0 0 841.9 595.3" style="enable-background:new 0 0 841.9 595.3;" xml:space="preserve">
<g>
	<rect x="719.2" y="225.1" width="11.7" height="151"/>
	<path d="M70.7,358.7c-22.5-9.9-37.1-32.3-37.1-57.2c0-8.8,1.8-17.4,5.4-25.6c10.5-23.7,33.8-38.6,59.4-37.9l2.7,0.1v-12.6l-2.5-0.1
		c-30.8-0.8-58.7,16.9-71.1,45.3c-4.3,9.7-6.4,19.9-6.4,30.4v0c0,29.8,17.5,56.7,44.6,68.6c10.4,4.6,21.5,6.7,32.9,6.2l2.5-0.1
		l0.1-12.1l-2.7,0.1C88.8,364.2,79.5,362.5,70.7,358.7z"/>
	<path d="M215.6,237.9l2.7,0.1l0-12.5l-2.5-0.1c-30.7-0.9-58.6,16.9-71.1,45.3c-4.2,9.7-6.4,19.9-6.4,30.4
		c0,29.8,17.5,56.7,44.6,68.6c10.5,4.6,21.5,6.7,32.9,6.2l2.5-0.1v-12.1l-2.7,0.1c-9.6,0.4-18.9-1.3-27.6-5.1
		c-22.5-9.9-37.1-32.3-37.1-57.2c0-8.8,1.8-17.4,5.4-25.6C166.7,252.1,190,237.2,215.6,237.9z"/>
	<polygon points="113.8,376.2 125.5,376.2 125.5,225 113.8,225.1 	"/>
	<polygon points="242.8,225 231,225 231,376.2 234.1,376.2 263.3,376.2 263.3,364.4 242.7,364.4 	"/>
	<polygon points="276,376.2 287.8,376.2 287.8,225 276,225 	"/>
	<path d="M380.3,289.3l-66.3,0c0.9-4.8,2.3-9.6,4.3-14.2c10.1-23.4,33-38.3,58.2-38.1l2.6,0v-12.5l-2.6,0
		c-30.3-0.3-57.7,17.5-69.9,45.5c-2.7,6.2-4.5,12.8-5.5,19.4l-0.3,11.8h66.9c0,0.1,0,0.2,0,0.3c0,8.9-1.7,17.3-5.1,25
		c-10.5,23.7-33.8,38.5-59.4,37.8l-2.6-0.1l-0.1,12.5l2.5,0.1c30.8,0.9,58.7-16.7,71.2-45.1c4.1-9.3,6.1-19.3,6.1-30
		c0-1.2,0-2.4-0.1-3.4V289.3z"/>
	<path d="M537.6,272.1c-4,9.9-6.1,20.3-6.2,31.1v72.5h11.8v-69.9h57.6v70.7l11.7,0.1l0-151.5l-2.4-0.1
		C579.2,223.2,550,242.2,537.6,272.1z M600.8,293.6h-56.6c0.8-5.6,2.3-11.1,4.5-16.3c9.2-22.4,29.1-37.3,52.1-39.2V293.6z"/>
	<path d="M631.5,271.7c-3.9,9.6-6,19.7-6.2,30.1l0,75l12.1,0.1v-72.4l0-1.3c0-9.2,1.8-18,5.2-26.2c9.3-22.4,29.1-37.2,52.1-39.2v139
		l11.8,0.1l0-152.2l-2.5-0.1C673,222.9,643.9,241.8,631.5,271.7z"/>
	<path d="M822.4,224.8c-31-1.7-60.1,17.3-72.5,47.3c-3.7,9.1-5.8,18.7-6.2,28.5l-0.1,75.1h11.8v-69.9h57.6v70.7l11.7,0.1l0-151.5
		L822.4,224.8z M813.1,293.6h-56.6c0.8-5.6,2.3-11.1,4.5-16.3c9.3-22.4,29.1-37.3,52.1-39.2V293.6z"/>
	<path d="M455.9,223.2c-34.6,0-62.8,28.2-62.8,62.8V378h13.8v-91.9c0-24.7,18.4-45.2,42.1-48.5V378h13.8V237.5
		c23.8,3.4,42.1,23.8,42.1,48.5V378h13.8v-91.9C518.7,251.4,490.5,223.2,455.9,223.2z"/>
</g>
</svg>
